<svg xmlns="http://www.w3.org/2000/svg" xmlns:xlink="http://www.w3.org/1999/xlink" width="1000" zoomAndPan="magnify" viewBox="0 0 750 749.999995" height="1000" preserveAspectRatio="xMidYMid meet" version="1.0"><defs><clipPath id="c115780b1b"><path d="M 492.023438 191.347656 L 671 191.347656 L 671 266.941406 L 492.023438 266.941406 Z M 492.023438 191.347656 " clip-rule="nonzero"/></clipPath><clipPath id="8db742708c"><path d="M 670.972656 191.355469 L 594.773438 266.273438 L 527.355469 266.273438 C 522 212.742188 492.039062 191.355469 492.039062 191.355469 Z M 670.972656 191.355469 " clip-rule="nonzero"/></clipPath><clipPath id="03260a0bbe"><path d="M 0.0234375 0.347656 L 179 0.347656 L 179 75.398438 L 0.0234375 75.398438 Z M 0.0234375 0.347656 " clip-rule="nonzero"/></clipPath><clipPath id="879224bb7e"><path d="M 178.972656 0.355469 L 102.773438 75.273438 L 35.355469 75.273438 C 30 21.742188 0.0390625 0.355469 0.0390625 0.355469 Z M 178.972656 0.355469 " clip-rule="nonzero"/></clipPath><clipPath id="3ba654a325"><rect x="0" width="179" y="0" height="76"/></clipPath><clipPath id="cab9f7b31d"><path d="M 279.714844 191.347656 L 490.414062 191.347656 L 490.414062 563.695312 L 279.714844 563.695312 Z M 279.714844 191.347656 " clip-rule="nonzero"/></clipPath><clipPath id="24b41731e3"><path d="M 490.265625 269.617188 L 490.265625 563.484375 L 415.347656 491.050781 L 415.347656 279.5625 C 415.347656 272.226562 409.394531 266.273438 402.058594 266.273438 L 356.519531 266.273438 L 279.851562 191.355469 L 412.007812 191.355469 C 455.226562 191.355469 490.265625 226.398438 490.265625 269.617188 " clip-rule="nonzero"/></clipPath><clipPath id="c16b92674f"><path d="M 0.839844 0.347656 L 211.320312 0.347656 L 211.320312 372.519531 L 0.839844 372.519531 Z M 0.839844 0.347656 " clip-rule="nonzero"/></clipPath><clipPath id="bd03687136"><path d="M 211.265625 78.617188 L 211.265625 372.484375 L 136.347656 300.050781 L 136.347656 88.5625 C 136.347656 81.226562 130.394531 75.273438 123.058594 75.273438 L 77.519531 75.273438 L 0.851562 0.355469 L 133.007812 0.355469 C 176.226562 0.355469 211.265625 35.398438 211.265625 78.617188 " clip-rule="nonzero"/></clipPath><clipPath id="00f10c7fd1"><rect x="0" width="212" y="0" height="373"/></clipPath><clipPath id="92a0145ea0"><path d="M 106.003906 191.347656 L 446.183594 191.347656 L 446.183594 573.34375 L 106.003906 573.34375 Z M 106.003906 191.347656 " clip-rule="nonzero"/></clipPath><clipPath id="37e2541a75"><path d="M 446.171875 573.339844 L 186.828125 573.339844 C 142.199219 573.339844 106.011719 537.152344 106.011719 492.523438 L 106.011719 273.59375 C 106.011719 228.175781 142.835938 191.355469 188.253906 191.355469 L 232.898438 191.355469 L 305.976562 266.273438 L 197.917969 266.273438 C 188.535156 266.273438 180.929688 273.875 180.929688 283.261719 L 180.929688 485.023438 C 180.929688 492.417969 186.929688 498.421875 194.324219 498.421875 L 369.59375 498.421875 Z M 446.171875 573.339844 " clip-rule="nonzero"/></clipPath><clipPath id="d97a108050"><path d="M 0.00390625 0.347656 L 340.183594 0.347656 L 340.183594 382.34375 L 0.00390625 382.34375 Z M 0.00390625 0.347656 " clip-rule="nonzero"/></clipPath><clipPath id="412ec6b3f8"><path d="M 340.171875 382.339844 L 80.828125 382.339844 C 36.199219 382.339844 0.0117188 346.152344 0.0117188 301.523438 L 0.0117188 82.59375 C 0.0117188 37.175781 36.835938 0.355469 82.253906 0.355469 L 126.898438 0.355469 L 199.976562 75.273438 L 91.917969 75.273438 C 82.535156 75.273438 74.929688 82.875 74.929688 92.261719 L 74.929688 294.023438 C 74.929688 301.417969 80.929688 307.421875 88.324219 307.421875 L 263.59375 307.421875 Z M 340.171875 382.339844 " clip-rule="nonzero"/></clipPath><clipPath id="4773668bed"><rect x="0" width="341" y="0" height="383"/></clipPath></defs><g clip-path="url(#c115780b1b)"><g clip-path="url(#8db742708c)"><g transform="matrix(1, 0, 0, 1, 492, 191)"><g clip-path="url(#3ba654a325)"><g clip-path="url(#03260a0bbe)"><g clip-path="url(#879224bb7e)"><rect x="-657" width="1080" fill="#298de7" height="1079.999992" y="-355.999999" fill-opacity="1"/></g></g></g></g></g></g><g clip-path="url(#cab9f7b31d)"><g clip-path="url(#24b41731e3)"><g transform="matrix(1, 0, 0, 1, 279, 191)"><g clip-path="url(#00f10c7fd1)"><g clip-path="url(#c16b92674f)"><g clip-path="url(#bd03687136)"><rect x="-444" width="1080" fill="#298de7" height="1079.999992" y="-355.999999" fill-opacity="1"/></g></g></g></g></g></g><g clip-path="url(#92a0145ea0)"><g clip-path="url(#37e2541a75)"><g transform="matrix(1, 0, 0, 1, 106, 191)"><g clip-path="url(#4773668bed)"><g clip-path="url(#d97a108050)"><g clip-path="url(#412ec6b3f8)"><rect x="-271" width="1080" fill="#07305e" height="1079.999992" y="-355.999999" fill-opacity="1"/></g></g></g></g></g></g></svg>